<svg xmlns="http://www.w3.org/2000/svg" viewBox="0 0 172 162"><defs><style>.cls-1{fill:#e6e6e6;}.cls-2{fill:#00b5f4;}.cls-3{fill:#2fc8f2;}.cls-4{fill:#fff;}.cls-5{fill:#34234d;}.cls-6{fill:#ff5067;}.cls-7{fill:#ff6e86;}.cls-8{fill:#a09cad;}</style></defs><title>Asset 71</title><g id="Layer_2" data-name="Layer 2"><g id="Layer_1-2" data-name="Layer 1"><path class="cls-1" d="M146.88,48.79c-6.28-12-4-32.95-15.44-40.21-11-7-28.7,3.8-42.7,3.24S58-1,46.43,5.17C34.5,11.5,35.07,32.54,27.86,44,20.87,55.13,1.57,63.48,1,77.57S17.86,102.43,24,114.07c6.29,12,1.94,30,16.61,39.3,11.06,7,28.7-3.8,42.7-3.24s30.75,12.78,42.31,6.65c11.93-6.32,11.36-27.37,18.57-38.84,7-11.12,26.29-19.46,26.85-33.55S153,60.43,146.88,48.79Z"/><ellipse class="cls-2" cx="86" cy="80.98" rx="65" ry="65.02"/><path class="cls-3" d="M70.3,65.27c25.36-25.37,52.93-38.94,61.6-30.33a65,65,0,0,0-91.92,92C31.37,118.22,44.93,90.64,70.3,65.27Z"/><path class="cls-1" d="M39.7,126.57a65.89,65.89,0,0,0,9.56,8c2.51-3.73,6.41-7.41,11.62-6.2,12.91,3,14.6-20,1-19.19-11.05.67-1.63-16.37-12.84-13a15.1,15.1,0,0,1-3.71.65C37.62,110.18,35.1,121.39,39.7,126.57Z"/><path class="cls-4" d="M43,83.13c3.46-1,12.67-3.67,15-13.5,2.41-10.41-11.48-13.47-8.69-20,3.06-7.15,27.85,2.29,27.85-9,0-6.2-7.37-4.47-12.33-5.7-6.15-1.53-8.82-6.46-9.74-11.13a65.11,65.11,0,0,0-33.5,48.61c0,.36-.1.71-.14,1.08-.06.54-.12,1.09-.17,1.65s-.07.9-.1,1.36-.07,1-.1,1.54,0,1.1,0,1.65c0,1,0,1.94,0,2.92,0,.29,0,.58,0,.86,0,.74.07,1.49.13,2.23l0,.36c.13,1.68.33,3.37.59,5.06a65,65,0,0,0,4.79,16.23v0c.43,1,.89,1.92,1.36,2.86,0,.09.09.18.14.27.44.86.9,1.72,1.38,2.56l.22.38c.47.81.95,1.61,1.45,2.39l.26.4c.51.79,1,1.57,1.58,2.33l.23.33c.58.8,1.18,1.59,1.79,2.36l.12.16a67.34,67.34,0,0,0,4.56,5.13c-4.6-5.18-2.08-16.39,5.67-29.75C35.48,97.26,32.6,86,43,83.13Z"/><path class="cls-1" d="M150.2,70.84a64.7,64.7,0,0,0-14.81-32.11,45.3,45.3,0,0,0-4,4.79c-3.08,4.24-9.52,4.45-13-2.49a15,15,0,0,0-5.52-6.09,98.85,98.85,0,0,0-21.5,12.24c-1.27,5.78.79,10.34,10.31,13,10.53,2.94,3.92,12.36-1.55,10.83-7.93-2.21-11.62-5.67-18-.59s-5.29,13.73,2.37,15c5.44.88,8.24,8.54,6.11,10.94C87.57,99,83.31,109.69,89,116s10,1.86,11.61-1.83,1.67-6.15,4.59-11.07c2.18-3.67,9.74-5.3,9.74-5.3s3.85-4.79-.47-16.32,11.42-16.14,16.3-2.42c2.36,6.66-3.72,20.32,7.91,18.44,5.21-.85,7.22,1.78,9.13,3.56A64.74,64.74,0,0,0,150.2,70.84Z"/><path class="cls-1" d="M128.79,111.32c.4,2.79-3.08,1.45-6.13,4.34s-3.83,4.57-7.47,2.75c-3.25-1.63,2.47-9.29,5.12-10.23S128.22,107.35,128.79,111.32Z"/><path class="cls-4" d="M91.62,46.15c-.09.34-.18.68-.25,1a98.85,98.85,0,0,1,21.5-12.24C105.64,30.49,95.29,33.29,91.62,46.15Z"/><path class="cls-5" d="M86,147a66.29,66.29,0,0,1-61.88-43,1,1,0,1,1,1.87-.7,64,64,0,0,0,109,18.89,1,1,0,0,1,1.53,1.29A65.88,65.88,0,0,1,86,147Z"/><path class="cls-5" d="M139.65,118.7a1,1,0,0,1-.57-.18,1,1,0,0,1-.26-1.39A64,64,0,1,0,24.09,97.28a1,1,0,0,1-1.93.51A66,66,0,1,1,152,81a65.66,65.66,0,0,1-11.53,37.28A1,1,0,0,1,139.65,118.7Z"/><polygon class="cls-6" points="84.37 113.3 100.07 131.99 104.69 128.62 107.28 104.74 84.37 113.3"/><path class="cls-5" d="M100.07,133a1,1,0,0,1-.77-.36L83.6,113.94a1,1,0,0,1-.2-.89,1,1,0,0,1,.62-.69l22.91-8.56a1,1,0,0,1,1,1.72,1,1,0,0,1,.23.75l-2.43,22.46a1,1,0,0,1-.41.7l-4.62,3.37A1,1,0,0,1,100.07,133Zm-14-19.25,14.18,16.89,3.52-2.56,2.36-21.83Z"/><polygon class="cls-7" points="31.36 122.25 21 104.03 30.21 103.12 45.81 110.99 31.36 122.25"/><path class="cls-5" d="M31.36,123.26l-.2,0a1,1,0,0,1-.67-.49L20.13,104.52a1,1,0,0,1,0-1,1,1,0,0,1,.79-.54l9.21-.91a1,1,0,0,1,.55.11l15.6,7.87a1,1,0,0,1,.55.79,1,1,0,0,1-.38.89L32,123.05A1,1,0,0,1,31.36,123.26Zm-8.73-18.39,9,15.89L44,111.17l-13.93-7Z"/><path class="cls-7" d="M133.61,80.77c4.88,4.19,4.6,12.15-23.56,24.16S30.36,133.2,27.83,127.29s28.81-26.35,57-38.36S127.49,75.52,133.61,80.77Z"/><path class="cls-6" d="M133.61,80.77c4.77,4.32,4.6,12.15-23.56,24.16s-79.66,28.25-82.22,22.36C30.75,123.93,54.76,112,82.58,99.2,109.85,86.67,124.69,80.66,133.61,80.77Z"/><path class="cls-4" d="M112.21,84.77a1,1,0,0,1-.25-2,46.32,46.32,0,0,0,12.48-5.73,1,1,0,0,1,1.11,1.67,47.43,47.43,0,0,1-13.09,6A1,1,0,0,1,112.21,84.77Z"/><path class="cls-5" d="M31.81,129.56c-4.1,0-4.62-1.21-4.9-1.88-.74-1.71.32-4,3.21-7a1,1,0,1,1,1.44,1.39c-3.14,3.27-2.95,4.54-2.81,4.85.49,1.14,7.45,1.57,30.3-5A484.73,484.73,0,0,0,109.66,104c19.92-8.5,24.75-14.46,25.29-18a4.86,4.86,0,0,0-2-4.51c-5.3-4.55-17.72-3.21-36.92,4a1,1,0,1,1-.7-1.88c20.21-7.55,32.95-8.74,38.92-3.61a6.81,6.81,0,0,1,2.66,6.33c-.9,5.84-9.81,12.4-26.48,19.51a485.83,485.83,0,0,1-50.83,17.94C44.08,128.27,36,129.56,31.81,129.56Z"/><path class="cls-5" d="M36.93,117a1,1,0,0,1-.61-1.79C47.78,106.33,67.1,95.39,84.41,88c1.49-.63,2.94-1.24,4.35-1.81a1,1,0,1,1,.76,1.85q-2.11.86-4.32,1.8C68,97.17,48.88,108,37.54,116.81A.94.94,0,0,1,36.93,117Z"/><polygon class="cls-6" points="44.85 76.46 31.64 82.86 70.35 106.4 105.18 90.2 44.85 76.46"/><path class="cls-5" d="M70.35,107.4a1,1,0,0,1-.52-.15L31.12,83.71a1,1,0,0,1-.48-.9A1,1,0,0,1,31.2,82l13.21-6.4a1,1,0,0,1,.66-.07L105.4,89.23a1,1,0,0,1,.76,1.19,1,1,0,0,1-1.2.76L45,77.52,33.73,83l37.14,22.58a1,1,0,0,1-.52,1.86Z"/><polygon class="cls-4" points="50 0.95 52.44 5.89 57.89 6.69 53.94 10.53 54.87 15.96 50 13.4 45.13 15.96 46.06 10.53 42.11 6.69 47.56 5.89 50 0.95"/><path class="cls-8" d="M54.87,17a.93.93,0,0,1-.46-.12L50,14.53l-4.41,2.31a1,1,0,0,1-1.05-.07,1,1,0,0,1-.4-1L45,10.88,41.42,7.4a1,1,0,0,1-.26-1A1,1,0,0,1,42,5.7L46.9,5,49.1.51a1,1,0,0,1,1.8,0L53.1,5,58,5.7a1,1,0,0,1,.81.68,1,1,0,0,1-.26,1L55,10.88l.84,4.91a1,1,0,0,1-.4,1A1,1,0,0,1,54.87,17ZM50,12.4a1,1,0,0,1,.47.11l3.08,1.62L53,10.7a1,1,0,0,1,.29-.89l2.49-2.43-3.45-.5a1,1,0,0,1-.75-.54L50,3.21,48.46,6.34a1,1,0,0,1-.75.54l-3.45.5,2.49,2.43a1,1,0,0,1,.29.89l-.59,3.43,3.08-1.62A1,1,0,0,1,50,12.4Z"/><polygon class="cls-4" points="146 16.31 148.44 21.25 153.89 22.04 149.94 25.88 150.87 31.31 146 28.75 141.13 31.31 142.06 25.88 138.11 22.04 143.56 21.25 146 16.31"/><path class="cls-8" d="M150.87,32.31a1,1,0,0,1-.46-.11L146,29.88l-4.41,2.32a1,1,0,0,1-1.05-.08,1,1,0,0,1-.4-1l.84-4.91-3.56-3.48a1,1,0,0,1,.55-1.7l4.93-.72,2.2-4.47a1,1,0,0,1,1.8,0l2.2,4.47,4.93.72a1,1,0,0,1,.55,1.7L151,26.23l.84,4.91a1,1,0,0,1-.4,1A1,1,0,0,1,150.87,32.31ZM146,27.75a1,1,0,0,1,.47.11l3.08,1.62L149,26.05a1,1,0,0,1,.29-.88l2.49-2.43-3.45-.5a1,1,0,0,1-.75-.55L146,18.57l-1.54,3.12a1,1,0,0,1-.75.55l-3.45.5,2.49,2.43a1,1,0,0,1,.29.88l-.59,3.43,3.08-1.62A1,1,0,0,1,146,27.75Z"/><polygon class="cls-4" points="163 97.77 165.47 102.78 171 103.58 167 107.48 167.94 112.99 163 110.39 158.06 112.99 159 107.48 155 103.58 160.53 102.78 163 97.77"/><path class="cls-8" d="M167.94,114a1,1,0,0,1-.46-.12L163,111.52l-4.48,2.35a1,1,0,0,1-1.05-.07,1,1,0,0,1-.4-1l.86-5-3.63-3.53a1,1,0,0,1-.25-1,1,1,0,0,1,.81-.68l5-.73,2.24-4.54a1,1,0,0,1,1.8,0l2.24,4.54,5,.73a1,1,0,0,1,.81.68,1,1,0,0,1-.25,1l-3.63,3.53.86,5a1,1,0,0,1-.4,1A1,1,0,0,1,167.94,114Zm-4.94-4.6a1,1,0,0,1,.47.11l3.15,1.66-.61-3.51a1,1,0,0,1,.29-.89l2.55-2.48-3.52-.52a1,1,0,0,1-.75-.54L163,100l-1.58,3.19a1,1,0,0,1-.75.54l-3.52.52,2.55,2.48a1,1,0,0,1,.29.89l-.61,3.51,3.15-1.66A1,1,0,0,1,163,109.39Z"/><polygon class="cls-4" points="117 145.78 119.47 150.79 125 151.59 121 155.49 121.94 161 117 158.4 112.06 161 113 155.49 109 151.59 114.53 150.79 117 145.78"/><path class="cls-8" d="M121.94,162a1,1,0,0,1-.46-.12L117,159.53l-4.48,2.35a1,1,0,0,1-1.45-1l.86-5-3.63-3.53a1,1,0,0,1,.56-1.71l5-.73,2.24-4.53a1,1,0,0,1,1.8,0l2.24,4.53,5,.73a1,1,0,0,1,.56,1.71l-3.63,3.53.86,5a1,1,0,0,1-.4,1A1,1,0,0,1,121.94,162ZM117,157.4a1.12,1.12,0,0,1,.47.11l3.15,1.66-.61-3.51a1,1,0,0,1,.29-.88l2.55-2.49-3.52-.51a1,1,0,0,1-.75-.55L117,148l-1.58,3.19a1,1,0,0,1-.75.55l-3.52.51,2.55,2.49a1,1,0,0,1,.29.88l-.61,3.51,3.15-1.66A1.12,1.12,0,0,1,117,157.4Z"/><polygon class="cls-4" points="19.8 130.78 22.23 135.71 27.68 136.5 23.74 140.35 24.67 145.78 19.8 143.22 14.92 145.78 15.85 140.35 11.91 136.5 17.36 135.71 19.8 130.78"/><path class="cls-8" d="M24.67,146.78a.93.93,0,0,1-.46-.12l-4.41-2.31-4.41,2.31a1,1,0,0,1-1.45-1l.84-4.91-3.57-3.48a1,1,0,0,1,.56-1.7l4.93-.72,2.2-4.47a1,1,0,0,1,1.79,0l2.21,4.47,4.93.72a1,1,0,0,1,.8.68,1,1,0,0,1-.25,1l-3.57,3.48.85,4.91a1,1,0,0,1-.4,1A1.06,1.06,0,0,1,24.67,146.78Zm-4.87-4.57a.93.93,0,0,1,.46.12L23.34,144l-.59-3.43a1,1,0,0,1,.29-.89l2.49-2.43-3.44-.5a1,1,0,0,1-.75-.54L19.8,133l-1.54,3.12a1,1,0,0,1-.76.54l-3.44.5,2.49,2.43a1,1,0,0,1,.29.89L16.25,144l3.08-1.62A1,1,0,0,1,19.8,142.21Z"/><polygon class="cls-4" points="8.89 48.27 11.32 53.21 16.77 54 12.83 57.85 13.76 63.28 8.89 60.71 4.01 63.28 4.94 57.85 1 54 6.45 53.21 8.89 48.27"/><path class="cls-8" d="M13.76,64.28a1,1,0,0,1-.47-.12l-4.4-2.32L4.48,64.16a1,1,0,0,1-1.45-1l.84-4.91L.3,54.72a1,1,0,0,1-.25-1A1,1,0,0,1,.86,53l4.93-.71L8,47.83a1,1,0,0,1,1.79,0L12,52.3l4.92.71a1,1,0,0,1,.56,1.71L13.9,58.2l.85,4.91a1,1,0,0,1-.4,1A1.06,1.06,0,0,1,13.76,64.28ZM8.89,59.71a.93.93,0,0,1,.46.12l3.08,1.62L11.84,58a1,1,0,0,1,.29-.89l2.49-2.43-3.44-.5a1,1,0,0,1-.75-.55L8.89,50.53,7.35,53.65a1,1,0,0,1-.76.55l-3.44.5,2.49,2.43a1,1,0,0,1,.29.89l-.59,3.43,3.08-1.62A1,1,0,0,1,8.89,59.71Z"/></g></g></svg>